<!-- icon666.com - MILLIONS vector ICONS FREE --><svg id="Capa_1" enable-background="new 0 0 512 512" viewBox="0 0 512 512" xmlns="http://www.w3.org/2000/svg"><g><path d="m151.014 482h-45v-394.58c17.459-6.192 30-22.865 30-42.42 0-24.813-20.187-45-45-45s-45 20.187-45 45c0 19.555 12.541 36.228 30 42.42v394.58h-45c-8.284 0-15 6.716-15 15s6.716 15 15 15h120c8.284 0 15-6.716 15-15s-6.716-15-15-15z" fill="#000000" style="fill: rgb(255, 0, 0);"></path><path d="m136.014 349.74 169.12-48.32c6.44-1.84 10.88-7.72 10.88-14.42v-120c0-6.7-4.44-12.58-10.88-14.42l-169.12-48.32z" fill="#000000" style="fill: rgb(255, 0, 0);"></path><path d="m485.754 272.77-139.74-46.58v60.81c0 19.98-13.42 37.78-32.64 43.27l-27.36 7.82v8.91c0 10.333 10.155 17.446 19.74 14.23l180-60c13.626-4.535 13.66-23.914 0-28.46z" fill="#000000" style="fill: rgb(255, 0, 0);"></path></g></svg>