<?xml version="1.0" encoding="UTF-8"?>
<!DOCTYPE svg PUBLIC "-//W3C//DTD SVG 1.1//EN" "http://www.w3.org/Graphics/SVG/1.1/DTD/svg11.dtd">
<svg xmlns="http://www.w3.org/2000/svg" version="1.1" width="512px" height="512px" style="shape-rendering:geometricPrecision; text-rendering:geometricPrecision; image-rendering:optimizeQuality; fill-rule:evenodd; clip-rule:evenodd" xmlns:xlink="http://www.w3.org/1999/xlink">
<g><path style="opacity:0.996" fill="#f29b12" d="M 490.5,340.5 C 483.167,340.5 475.833,340.5 468.5,340.5C 461.593,290.819 454.593,241.153 447.5,191.5C 319.5,191.5 191.5,191.5 63.5,191.5C 56.4067,241.153 49.4067,290.819 42.5,340.5C 35.1667,340.5 27.8333,340.5 20.5,340.5C 34.757,269.549 48.757,198.549 62.5,127.5C 191.167,127.5 319.833,127.5 448.5,127.5C 462.243,198.549 476.243,269.549 490.5,340.5 Z"/></g>
<g><path style="opacity:1" fill="#e67e21" d="M 468.5,340.5 C 417.499,340.333 366.499,340.5 315.5,341C 299.039,375.73 272.039,388.73 234.5,380C 216.141,372.308 203.141,359.308 195.5,341C 144.501,340.5 93.5011,340.333 42.5,340.5C 49.4067,290.819 56.4067,241.153 63.5,191.5C 191.5,191.5 319.5,191.5 447.5,191.5C 454.593,241.153 461.593,290.819 468.5,340.5 Z"/></g>
<g><path style="opacity:0.999" fill="#f0c30f" d="M 20.5,340.5 C 27.8333,340.5 35.1667,340.5 42.5,340.5C 93.5011,340.333 144.501,340.5 195.5,341C 203.141,359.308 216.141,372.308 234.5,380C 272.039,388.73 299.039,375.73 315.5,341C 366.499,340.5 417.499,340.333 468.5,340.5C 475.833,340.5 483.167,340.5 490.5,340.5C 490.5,390.5 490.5,440.5 490.5,490.5C 333.833,490.5 177.167,490.5 20.5,490.5C 20.5,440.5 20.5,390.5 20.5,340.5 Z"/></g>
<g><path style="opacity:0.999" fill="#f29c11" d="M 20.5,490.5 C 177.167,490.5 333.833,490.5 490.5,490.5C 490.5,497.5 490.5,504.5 490.5,511.5C 333.833,511.5 177.167,511.5 20.5,511.5C 20.5,504.5 20.5,497.5 20.5,490.5 Z"/></g>
</svg>
