<?xml version="1.0" encoding="UTF-8" standalone="no"?>
<svg
   inkscape:export-ydpi="576"
   inkscape:export-xdpi="576"
   inkscape:export-filename="/media/taufikramadhan/Data/Tr Design Studio/Project Design/TR Creative Design/Icon Design/Project Hiring/Icon Icons/020 - Kids/Team/Adnan/Project juni_FILES (2)/Project juni #1/export/flat/svg/6. rocking horse"
   width="64pt"
   height="64pt"
   viewBox="0 0 22.577778 22.577778"
   version="1.1"
   id="svg831"
   inkscape:version="1.1.2 (1:1.1+202202050950+0a00cf5339)"
   sodipodi:docname="6. rocking horse.svg"
   xmlns:inkscape="http://www.inkscape.org/namespaces/inkscape"
   xmlns:sodipodi="http://sodipodi.sourceforge.net/DTD/sodipodi-0.dtd"
   xmlns="http://www.w3.org/2000/svg"
   xmlns:svg="http://www.w3.org/2000/svg"
   xmlns:rdf="http://www.w3.org/1999/02/22-rdf-syntax-ns#"
   xmlns:cc="http://creativecommons.org/ns#"
   xmlns:dc="http://purl.org/dc/elements/1.1/">
  <defs
     id="defs825">
    <pattern
       id="EMFhbasepattern"
       patternUnits="userSpaceOnUse"
       width="6"
       height="6"
       x="0"
       y="0" />
    <pattern
       id="EMFhbasepattern-9"
       patternUnits="userSpaceOnUse"
       width="6"
       height="6"
       x="0"
       y="0" />
    <pattern
       id="EMFhbasepattern-0"
       patternUnits="userSpaceOnUse"
       width="6"
       height="6"
       x="0"
       y="0" />
    <pattern
       id="EMFhbasepattern-7"
       patternUnits="userSpaceOnUse"
       width="6"
       height="6"
       x="0"
       y="0" />
    <pattern
       id="EMFhbasepattern-2"
       patternUnits="userSpaceOnUse"
       width="6"
       height="6"
       x="0"
       y="0" />
    <pattern
       id="EMFhbasepattern-98"
       patternUnits="userSpaceOnUse"
       width="6"
       height="6"
       x="0"
       y="0" />
    <pattern
       id="EMFhbasepattern-6"
       patternUnits="userSpaceOnUse"
       width="6"
       height="6"
       x="0"
       y="0" />
    <pattern
       id="EMFhbasepattern-01"
       patternUnits="userSpaceOnUse"
       width="6"
       height="6"
       x="0"
       y="0" />
    <pattern
       id="EMFhbasepattern-07"
       patternUnits="userSpaceOnUse"
       width="6"
       height="6"
       x="0"
       y="0" />
    <pattern
       id="EMFhbasepattern-8"
       patternUnits="userSpaceOnUse"
       width="6"
       height="6"
       x="0"
       y="0" />
    <pattern
       id="EMFhbasepattern-4"
       patternUnits="userSpaceOnUse"
       width="6"
       height="6"
       x="0"
       y="0" />
    <pattern
       id="EMFhbasepattern-40"
       patternUnits="userSpaceOnUse"
       width="6"
       height="6"
       x="0"
       y="0" />
    <pattern
       id="EMFhbasepattern-08"
       patternUnits="userSpaceOnUse"
       width="6"
       height="6"
       x="0"
       y="0" />
    <pattern
       id="EMFhbasepattern-04"
       patternUnits="userSpaceOnUse"
       width="6"
       height="6"
       x="0"
       y="0" />
    <pattern
       id="EMFhbasepattern-014"
       patternUnits="userSpaceOnUse"
       width="6"
       height="6"
       x="0"
       y="0" />
    <pattern
       id="EMFhbasepattern-27"
       patternUnits="userSpaceOnUse"
       width="6"
       height="6"
       x="0"
       y="0" />
    <pattern
       id="EMFhbasepattern-09"
       patternUnits="userSpaceOnUse"
       width="6"
       height="6"
       x="0"
       y="0" />
    <pattern
       id="EMFhbasepattern-5"
       patternUnits="userSpaceOnUse"
       width="6"
       height="6"
       x="0"
       y="0" />
    <pattern
       id="EMFhbasepattern-018"
       patternUnits="userSpaceOnUse"
       width="6"
       height="6"
       x="0"
       y="0" />
  </defs>
  <sodipodi:namedview
     id="base"
     pagecolor="#ffffff"
     bordercolor="#666666"
     borderopacity="1.0"
     inkscape:pageopacity="0.0"
     inkscape:pageshadow="2"
     inkscape:zoom="17.699767"
     inkscape:cx="10.706356"
     inkscape:cy="69.435944"
     inkscape:document-units="pt"
     inkscape:current-layer="layer1"
     showgrid="false"
     units="pt"
     inkscape:window-width="1366"
     inkscape:window-height="705"
     inkscape:window-x="0"
     inkscape:window-y="31"
     inkscape:window-maximized="1"
     inkscape:pagecheckerboard="true"
     inkscape:showpageshadow="false"
     inkscape:object-paths="true"
     inkscape:snap-intersection-paths="true"
     inkscape:snap-smooth-nodes="true"
     inkscape:snap-midpoints="true"
     showguides="true"
     inkscape:snap-bbox="true"
     inkscape:bbox-nodes="true"
     inkscape:snap-nodes="false"
     inkscape:snap-global="true"
     inkscape:document-rotation="0">
    <inkscape:grid
       type="xygrid"
       id="grid1378" />
    <sodipodi:guide
       position="0.97013831,21.607643"
       orientation="78.000048,0"
       id="guide1380"
       inkscape:locked="false" />
    <sodipodi:guide
       position="0.97013831,0.97013129"
       orientation="0,78.000005"
       id="guide1382"
       inkscape:locked="false" />
    <sodipodi:guide
       position="21.607639,0.97013129"
       orientation="-78.000048,0"
       id="guide1384"
       inkscape:locked="false" />
    <sodipodi:guide
       position="21.607639,21.607643"
       orientation="0,-78.000005"
       id="guide1386"
       inkscape:locked="false" />
  </sodipodi:namedview>
  <metadata
     id="metadata828">
    <rdf:RDF>
      <cc:Work
         rdf:about="">
        <dc:format>image/svg+xml</dc:format>
        <dc:type
           rdf:resource="http://purl.org/dc/dcmitype/StillImage" />
      </cc:Work>
    </rdf:RDF>
  </metadata>
  <g
     inkscape:label="Icon"
     inkscape:groupmode="layer"
     id="layer1"
     transform="translate(0,-274.42223)">
    <g
       transform="matrix(1.2620916,0,0,1.2620916,77.598524,-78.443551)"
       style="display:inline;stroke-width:0.792336"
       id="g602">
      <path
         sodipodi:nodetypes="ccccscccccccc"
         style="color:#000000;font-style:normal;font-variant:normal;font-weight:normal;font-stretch:normal;font-size:medium;line-height:normal;font-family:sans-serif;font-variant-ligatures:normal;font-variant-position:normal;font-variant-caps:normal;font-variant-numeric:normal;font-variant-alternates:normal;font-variant-east-asian:normal;font-feature-settings:normal;font-variation-settings:normal;text-indent:0;text-align:start;text-decoration:none;text-decoration-line:none;text-decoration-style:solid;text-decoration-color:#000000;letter-spacing:normal;word-spacing:normal;text-transform:none;writing-mode:lr-tb;direction:ltr;text-orientation:mixed;dominant-baseline:auto;baseline-shift:baseline;text-anchor:start;white-space:normal;shape-padding:0;shape-margin:0;inline-size:0;clip-rule:nonzero;display:inline;overflow:visible;visibility:visible;isolation:auto;mix-blend-mode:normal;color-interpolation:sRGB;color-interpolation-filters:linearRGB;solid-color:#000000;solid-opacity:1;vector-effect:none;fill:#9a605a;fill-opacity:1;fill-rule:nonzero;stroke:none;stroke-width:0.419278;stroke-linecap:round;stroke-linejoin:round;stroke-miterlimit:4;stroke-dasharray:none;stroke-dashoffset:0;stroke-opacity:1;color-rendering:auto;image-rendering:auto;shape-rendering:auto;text-rendering:auto;enable-background:accumulate;stop-color:#000000"
         d="m -58.746093,287.74706 c -0.383683,0.47458 -0.723467,0.64984 -1.279297,0.8662 -0.202754,0.0788 -0.229112,0.35498 -0.04492,0.4707 0.568198,0.35515 1.047621,0.48106 1.460937,0.45118 0.413316,-0.0299 0.737228,-0.21023 1.001953,-0.38672 0.264725,-0.1765 0.481623,-0.3458 0.669922,-0.41602 0.188299,-0.0702 0.341527,-0.083 0.623047,0.0859 0.09062,0.0546 0.205075,0.05 0.291015,-0.0117 l 0.734376,-0.53711 c 0.132732,-0.097 0.145803,-0.2903 0.02734,-0.4043 l -0.509765,-0.49023 c -0.42707,-0.40983 -1.039217,-0.57949 -1.673827,-0.44725 -0.557938,0.11627 -1.011298,0.40775 -1.300781,0.81935 z"
         id="path1108" />
      <path
         sodipodi:nodetypes="ccsccccccccccccccc"
         style="color:#000000;font-style:normal;font-variant:normal;font-weight:normal;font-stretch:normal;font-size:medium;line-height:normal;font-family:sans-serif;font-variant-ligatures:normal;font-variant-position:normal;font-variant-caps:normal;font-variant-numeric:normal;font-variant-alternates:normal;font-variant-east-asian:normal;font-feature-settings:normal;font-variation-settings:normal;text-indent:0;text-align:start;text-decoration:none;text-decoration-line:none;text-decoration-style:solid;text-decoration-color:#000000;letter-spacing:normal;word-spacing:normal;text-transform:none;writing-mode:lr-tb;direction:ltr;text-orientation:mixed;dominant-baseline:auto;baseline-shift:baseline;text-anchor:start;white-space:normal;shape-padding:0;shape-margin:0;inline-size:0;clip-rule:nonzero;display:inline;overflow:visible;visibility:visible;isolation:auto;mix-blend-mode:normal;color-interpolation:sRGB;color-interpolation-filters:linearRGB;solid-color:#000000;solid-opacity:1;vector-effect:none;fill:#9a605a;fill-opacity:1;fill-rule:nonzero;stroke:none;stroke-width:0.419278;stroke-linecap:round;stroke-linejoin:round;stroke-miterlimit:4;stroke-dasharray:none;stroke-dashoffset:0;stroke-opacity:1;color-rendering:auto;image-rendering:auto;shape-rendering:auto;text-rendering:auto;enable-background:accumulate;stop-color:#000000"
         d="m -50.921876,281.71003 c -0.785885,0.38218 -1.305644,1.14518 -1.376954,2.00886 -0.128608,0.76454 0.175111,1.48574 0.496094,2.16406 0.322697,0.68195 0.664846,1.33671 0.71875,1.92969 0.03122,0.31162 0.482338,0.32021 0.52539,0.01 0.155976,-1.18367 0.153928,-2.26197 0.990235,-3.35547 0.101762,-0.13207 0.0575,-0.32421 -0.0918,-0.39844 l -0.427735,-0.21289 -0.136718,-0.54883 0.779297,0.15625 0.21875,0.6582 c 0.04236,0.12828 0.174539,0.20406 0.30664,0.17579 0.289138,-0.0614 0.454693,-0.007 0.697266,0.0625 0.136699,0.0391 0.279878,-0.0368 0.324218,-0.17188 l 0.544922,-1.67578 c 0.03717,-0.11462 -0.0078,-0.23988 -0.109375,-0.30469 -0.590311,-0.37956 -1.153036,-0.63073 -1.718747,-0.7248 -0.565711,-0.0941 -1.134151,-0.0297 -1.740233,0.22743 z"
         id="path1126" />
      <path
         sodipodi:nodetypes="ccccccccccccccccccccc"
         id="path1193"
         style="color:#000000;font-style:normal;font-variant:normal;font-weight:normal;font-stretch:normal;font-size:medium;line-height:normal;font-family:sans-serif;font-variant-ligatures:normal;font-variant-position:normal;font-variant-caps:normal;font-variant-numeric:normal;font-variant-alternates:normal;font-variant-east-asian:normal;font-feature-settings:normal;font-variation-settings:normal;text-indent:0;text-align:start;text-decoration:none;text-decoration-line:none;text-decoration-style:solid;text-decoration-color:#000000;letter-spacing:normal;word-spacing:normal;text-transform:none;writing-mode:lr-tb;direction:ltr;text-orientation:mixed;dominant-baseline:auto;baseline-shift:baseline;text-anchor:start;white-space:normal;shape-padding:0;shape-margin:0;inline-size:0;clip-rule:nonzero;display:inline;overflow:visible;visibility:visible;isolation:auto;mix-blend-mode:normal;color-interpolation:sRGB;color-interpolation-filters:linearRGB;solid-color:#000000;solid-opacity:1;vector-effect:none;fill:#311a12;fill-opacity:1;fill-rule:nonzero;stroke:none;stroke-width:1.58467;stroke-linecap:round;stroke-linejoin:round;stroke-miterlimit:4;stroke-dasharray:none;stroke-dashoffset:0;stroke-opacity:1;color-rendering:auto;image-rendering:auto;shape-rendering:auto;text-rendering:auto;enable-background:accumulate;stop-color:#000000"
         d="m -193.07404,29.275379 c 0.11439,1.181352 1.82558,1.215002 1.98633,0.03906 0.58951,-4.473713 0.58134,-8.548727 3.74219,-12.681641 0.38634,-0.49914 0.21938,-1.226958 -0.34589,-1.507798 l -1.61718,-0.802734 -0.51758,-2.076172 2.94531,0.591797 0.82813,2.488281 c 0.16019,0.484359 0.65927,0.770511 1.1582,0.664062 1.0928,-0.232063 1.71795,-0.02635 2.63476,0.236328 0.51725,0.148521 1.05929,-0.138896 1.22657,-0.65039 l 0.76173,-2.484374 c -1.04165,-0.455461 -1.90563,-0.372041 -2.79881,-0.388671 l -0.52344,-1.572266 c -0.29461,-0.883426 -1.08871,-1.5813471 -2.00195,-1.7636715 l -5.26662,-1.0341807 c -1.86773,-0.084699 -3.29091,1.6754822 -2.89748,3.2626942 l 1.01572,4.056635 c 0.16602,0.642791 0.65724,1.132093 1.20712,1.494134 -1.36525,2.403175 -2.4821,5.004998 -2.71191,8.019531 0.58434,1.497302 1.05969,2.843051 1.1748,4.109376 z"
         transform="matrix(0.26458334,0,0,0.26458334,0,280.06666)" />
      <path
         id="path1196"
         style="color:#000000;font-style:normal;font-variant:normal;font-weight:normal;font-stretch:normal;font-size:medium;line-height:normal;font-family:sans-serif;font-variant-ligatures:normal;font-variant-position:normal;font-variant-caps:normal;font-variant-numeric:normal;font-variant-alternates:normal;font-variant-east-asian:normal;font-feature-settings:normal;font-variation-settings:normal;text-indent:0;text-align:start;text-decoration:none;text-decoration-line:none;text-decoration-style:solid;text-decoration-color:#000000;letter-spacing:normal;word-spacing:normal;text-transform:none;writing-mode:lr-tb;direction:ltr;text-orientation:mixed;dominant-baseline:auto;baseline-shift:baseline;text-anchor:start;white-space:normal;shape-padding:0;shape-margin:0;inline-size:0;clip-rule:nonzero;display:inline;overflow:visible;visibility:visible;isolation:auto;mix-blend-mode:normal;color-interpolation:sRGB;color-interpolation-filters:linearRGB;solid-color:#000000;solid-opacity:1;vector-effect:none;fill:#311a12;fill-opacity:1;fill-rule:nonzero;stroke:none;stroke-width:1.58467;stroke-linecap:round;stroke-linejoin:round;stroke-miterlimit:4;stroke-dasharray:none;stroke-dashoffset:0;stroke-opacity:1;color-rendering:auto;image-rendering:auto;shape-rendering:auto;text-rendering:auto;enable-background:accumulate;stop-color:#000000"
         d="m -210.625,27.779297 c -2.30541,1.148509 -4.20505,3.028745 -5.36328,5.382812 0.27688,-0.168405 0.54337,-0.317805 0.79101,-0.410156 0.71169,-0.265323 1.29146,-0.314143 2.35547,0.324219 a 1.0001006,1.0001006 0 0 0 1.09961,-0.04297 l 2.77539,-2.03125 a 1.0001006,1.0001006 0 0 0 0.10352,-1.527344 z"
         transform="matrix(0.26458334,0,0,0.26458334,0,280.06666)" />
      <path
         sodipodi:nodetypes="ccsccccsccccsccc"
         d="m -60.070237,289.08417 c 0.568198,0.35515 1.047578,0.48102 1.460894,0.45114 0.413314,-0.0299 0.73728,-0.21057 1.002004,-0.38706 0.264726,-0.1765 0.481428,-0.34577 0.669726,-0.41599 0.188302,-0.0702 0.341699,-0.0831 0.623218,0.0858 0.09054,0.0547 0.204955,0.0502 0.290939,-0.0114 l 0.734322,-0.53743 c 0.132599,-0.097 0.145688,-0.29011 0.02739,-0.40411 l -0.08578,-0.0827 -0.675928,0.49507 c -0.08598,0.0616 -0.200398,0.0661 -0.290939,0.0114 -0.281519,-0.1689 -0.434916,-0.15598 -0.623218,-0.0858 -0.188298,0.0702 -0.405,0.2395 -0.669726,0.416 -0.264724,0.17649 -0.58869,0.35715 -1.002004,0.38705 -0.39438,0.0285 -0.849963,-0.0872 -1.400174,-0.39947 -0.218615,0.0854 -0.245003,0.36175 -0.06072,0.47747 z"
         style="color:#000000;font-style:normal;font-variant:normal;font-weight:normal;font-stretch:normal;font-size:medium;line-height:normal;font-family:sans-serif;font-variant-ligatures:normal;font-variant-position:normal;font-variant-caps:normal;font-variant-numeric:normal;font-variant-alternates:normal;font-variant-east-asian:normal;font-feature-settings:normal;font-variation-settings:normal;text-indent:0;text-align:start;text-decoration:none;text-decoration-line:none;text-decoration-style:solid;text-decoration-color:#000000;letter-spacing:normal;word-spacing:normal;text-transform:none;writing-mode:lr-tb;direction:ltr;text-orientation:mixed;dominant-baseline:auto;baseline-shift:baseline;text-anchor:start;white-space:normal;shape-padding:0;shape-margin:0;inline-size:0;clip-rule:nonzero;display:inline;overflow:visible;visibility:visible;isolation:auto;mix-blend-mode:normal;color-interpolation:sRGB;color-interpolation-filters:linearRGB;solid-color:#000000;solid-opacity:1;vector-effect:none;fill:#311a12;fill-opacity:1;fill-rule:nonzero;stroke:none;stroke-width:0.419278;stroke-linecap:round;stroke-linejoin:round;stroke-miterlimit:4;stroke-dasharray:none;stroke-dashoffset:0;stroke-opacity:1;color-rendering:auto;image-rendering:auto;shape-rendering:auto;text-rendering:auto;enable-background:accumulate;stop-color:#000000"
         id="path437" />
      <path
         sodipodi:nodetypes="ccccccsccccccccccccscccccsssccccc"
         style="color:#000000;font-style:normal;font-variant:normal;font-weight:normal;font-stretch:normal;font-size:medium;line-height:normal;font-family:sans-serif;font-variant-ligatures:normal;font-variant-position:normal;font-variant-caps:normal;font-variant-numeric:normal;font-variant-alternates:normal;font-variant-east-asian:normal;font-feature-settings:normal;font-variation-settings:normal;text-indent:0;text-align:start;text-decoration:none;text-decoration-line:none;text-decoration-style:solid;text-decoration-color:#000000;letter-spacing:normal;word-spacing:normal;text-transform:none;writing-mode:lr-tb;direction:ltr;text-orientation:mixed;dominant-baseline:auto;baseline-shift:baseline;text-anchor:start;white-space:normal;shape-padding:0;shape-margin:0;inline-size:0;clip-rule:nonzero;display:inline;overflow:visible;visibility:visible;isolation:auto;mix-blend-mode:normal;color-interpolation:sRGB;color-interpolation-filters:linearRGB;solid-color:#000000;solid-opacity:1;vector-effect:none;fill:#bd887f;fill-opacity:1;fill-rule:nonzero;stroke:none;stroke-width:0.419278;stroke-linecap:round;stroke-linejoin:round;stroke-miterlimit:4;stroke-dasharray:none;stroke-dashoffset:0;stroke-opacity:1;color-rendering:auto;image-rendering:auto;shape-rendering:auto;text-rendering:auto;enable-background:accumulate;stop-color:#000000"
         d="m -50.839844,283.0293 0.267578,1.07226 c 0.01896,0.0748 0.06961,0.13754 0.138672,0.17188 l 0.332032,0.16797 c -0.449638,0.69403 -0.790866,1.45897 -0.851563,2.28811 l -0.125,0.79397 h -3.255859 c -1.224074,0 -2.297861,0.82789 -2.609375,2.01172 l -0.861329,3.27734 c -0.03554,0.13483 0.03965,0.2741 0.171876,0.31836 l 0.804687,0.26758 c 0.10151,0.0336 0.21325,0.003 0.283203,-0.0781 l 1.515625,-1.76953 c 2.128768,0.4903 4.182055,0.47189 6.15625,0.006 0.255831,0.30739 0.458791,0.70673 0.4375,1.58398 -0.0046,0.1831 0.173773,0.31536 0.347656,0.25782 l 1.072266,-0.36133 c 0.114316,-0.0384 0.188207,-0.14924 0.179687,-0.26953 -0.0396,-0.53425 -0.07801,-0.72708 -0.177734,-1.23828 -0.07647,-0.39205 -0.311737,-0.75608 -0.599609,-1.07422 -0.240108,-0.26536 -0.525248,-0.4628 -0.804688,-0.62891 0.266957,-1.34621 0.223094,-2.15093 0.0078,-3.28515 0.213788,0.14393 0.377715,0.28385 0.658203,0.39453 0.244616,0.0965 0.511465,0.16085 0.791015,0.13476 0.279551,-0.0261 0.565245,-0.1514 0.812503,-0.39842 0.25609,-0.29937 0.2275,-0.70176 0.08009,-1.04491 -0.147419,-0.34314 -0.411264,-0.67675 -0.730469,-0.97461 -0.319205,-0.29785 -0.694805,-0.55623 -1.082031,-0.72461 -0.294605,-0.1281 -0.593649,-0.1268 -0.888672,-0.10937 l -0.222657,-0.66797 c -0.03005,-0.0901 -0.106077,-0.15719 -0.199218,-0.17578 l -1.361326,-0.27064 c -0.196957,-0.009 -0.329351,0.15467 -0.287108,0.32508 z"
         id="path1140" />
      <path
         id="path1060"
         style="color:#000000;font-style:normal;font-variant:normal;font-weight:normal;font-stretch:normal;font-size:medium;line-height:normal;font-family:sans-serif;font-variant-ligatures:normal;font-variant-position:normal;font-variant-caps:normal;font-variant-numeric:normal;font-variant-alternates:normal;font-variant-east-asian:normal;font-feature-settings:normal;font-variation-settings:normal;text-indent:0;text-align:start;text-decoration:none;text-decoration-line:none;text-decoration-style:solid;text-decoration-color:#000000;letter-spacing:normal;word-spacing:normal;text-transform:none;writing-mode:lr-tb;direction:ltr;text-orientation:mixed;dominant-baseline:auto;baseline-shift:baseline;text-anchor:start;white-space:normal;shape-padding:0;shape-margin:0;inline-size:0;clip-rule:nonzero;display:inline;overflow:visible;visibility:visible;opacity:1;isolation:auto;mix-blend-mode:normal;color-interpolation:sRGB;color-interpolation-filters:linearRGB;solid-color:#000000;solid-opacity:1;vector-effect:none;fill:#9a605a;fill-opacity:1;fill-rule:nonzero;stroke:none;stroke-width:1.58467;stroke-linecap:round;stroke-linejoin:round;stroke-miterlimit:4;stroke-dasharray:none;stroke-dashoffset:0;stroke-opacity:1;color-rendering:auto;image-rendering:auto;shape-rendering:auto;text-rendering:auto;enable-background:accumulate;stop-color:#000000;stop-opacity:1"
         d="m -204.23438,35.041016 a 1.0000006,1.0000006 0 0 0 -0.99609,1.003906 l 0.0254,7.919922 c 0.66953,0.118428 1.33452,0.208911 2,0.300781 l -0.0254,-8.228516 a 1.0000006,1.0000006 0 0 0 -1.00391,-0.996093 z"
         transform="matrix(0.26458334,0,0,0.26458334,0,280.06666)" />
      <path
         sodipodi:nodetypes="cccccc"
         id="path1056"
         style="color:#000000;font-style:normal;font-variant:normal;font-weight:normal;font-stretch:normal;font-size:medium;line-height:normal;font-family:sans-serif;font-variant-ligatures:normal;font-variant-position:normal;font-variant-caps:normal;font-variant-numeric:normal;font-variant-alternates:normal;font-variant-east-asian:normal;font-feature-settings:normal;font-variation-settings:normal;text-indent:0;text-align:start;text-decoration:none;text-decoration-line:none;text-decoration-style:solid;text-decoration-color:#000000;letter-spacing:normal;word-spacing:normal;text-transform:none;writing-mode:lr-tb;direction:ltr;text-orientation:mixed;dominant-baseline:auto;baseline-shift:baseline;text-anchor:start;white-space:normal;shape-padding:0;shape-margin:0;inline-size:0;clip-rule:nonzero;display:inline;overflow:visible;visibility:visible;opacity:1;isolation:auto;mix-blend-mode:normal;color-interpolation:sRGB;color-interpolation-filters:linearRGB;solid-color:#000000;solid-opacity:1;vector-effect:none;fill:#9a605a;fill-opacity:1;fill-rule:nonzero;stroke:none;stroke-width:1.58467;stroke-linecap:round;stroke-linejoin:round;stroke-miterlimit:4;stroke-dasharray:none;stroke-dashoffset:0;stroke-opacity:1;color-rendering:auto;image-rendering:auto;shape-rendering:auto;text-rendering:auto;enable-background:accumulate;stop-color:#000000;stop-opacity:1"
         d="m -198.26367,36.392578 v 8.320313 c 0.66845,0.02736 1.33776,0.05396 2.00195,0.05469 v -8.375 c -0.001,-0.550761 -0.44729,-0.996974 -0.99919,-0.998591 -0.5519,-0.0016 -1.00168,0.44554 -1.00276,0.998588 z"
         transform="matrix(0.26458334,0,0,0.26458334,0,280.06666)" />
      <path
         sodipodi:nodetypes="ccsccscc"
         transform="matrix(0.26458334,0,0,0.26458334,0,280.06666)"
         d="m -193.16809,28.175794 -1.88269,0.0078 h -10.30664 c -1.56911,0 -3.06783,0.367295 -4.41602,1.017578 l 0.0176,1.978516 c 0.0423,4.964522 4.27831,8.896484 9.30078,8.896484 5.02381,0 7.29296,-2.835904 7.29297,-8.929681 z"
         style="color:#000000;font-style:normal;font-variant:normal;font-weight:normal;font-stretch:normal;font-size:medium;line-height:normal;font-family:sans-serif;font-variant-ligatures:normal;font-variant-position:normal;font-variant-caps:normal;font-variant-numeric:normal;font-variant-alternates:normal;font-variant-east-asian:normal;font-feature-settings:normal;font-variation-settings:normal;text-indent:0;text-align:start;text-decoration:none;text-decoration-line:none;text-decoration-style:solid;text-decoration-color:#000000;letter-spacing:normal;word-spacing:normal;text-transform:none;writing-mode:lr-tb;direction:ltr;text-orientation:mixed;dominant-baseline:auto;baseline-shift:baseline;text-anchor:start;white-space:normal;shape-padding:0;shape-margin:0;inline-size:0;clip-rule:nonzero;display:inline;overflow:visible;visibility:visible;isolation:auto;mix-blend-mode:normal;color-interpolation:sRGB;color-interpolation-filters:linearRGB;solid-color:#000000;solid-opacity:1;vector-effect:none;fill:#9a605a;fill-opacity:1;fill-rule:nonzero;stroke:none;stroke-width:1.58467;stroke-linecap:round;stroke-linejoin:round;stroke-miterlimit:4;stroke-dasharray:none;stroke-dashoffset:0;stroke-opacity:1;color-rendering:auto;image-rendering:auto;shape-rendering:auto;text-rendering:auto;enable-background:accumulate;stop-color:#000000"
         id="path429" />
      <path
         id="path1204"
         style="color:#000000;font-style:normal;font-variant:normal;font-weight:normal;font-stretch:normal;font-size:medium;line-height:normal;font-family:sans-serif;font-variant-ligatures:normal;font-variant-position:normal;font-variant-caps:normal;font-variant-numeric:normal;font-variant-alternates:normal;font-variant-east-asian:normal;font-feature-settings:normal;font-variation-settings:normal;text-indent:0;text-align:start;text-decoration:none;text-decoration-line:none;text-decoration-style:solid;text-decoration-color:#000000;letter-spacing:normal;word-spacing:normal;text-transform:none;writing-mode:lr-tb;direction:ltr;text-orientation:mixed;dominant-baseline:auto;baseline-shift:baseline;text-anchor:start;white-space:normal;shape-padding:0;shape-margin:0;inline-size:0;clip-rule:nonzero;display:inline;overflow:visible;visibility:visible;isolation:auto;mix-blend-mode:normal;color-interpolation:sRGB;color-interpolation-filters:linearRGB;solid-color:#000000;solid-opacity:1;vector-effect:none;fill:#311a12;fill-opacity:1;fill-rule:nonzero;stroke:none;stroke-width:1.58467;stroke-linecap:round;stroke-linejoin:round;stroke-miterlimit:4;stroke-dasharray:none;stroke-dashoffset:0;stroke-opacity:1;color-rendering:auto;image-rendering:auto;shape-rendering:auto;text-rendering:auto;enable-background:accumulate;stop-color:#000000"
         d="m -197.25977,35.394531 a 1.0000006,1.0000006 0 0 0 -1.0039,0.998047 v 3.410156 c 0.69952,-0.165426 1.37019,-0.404653 2.00195,-0.714843 v -2.695313 a 1.0000006,1.0000006 0 0 0 -0.99805,-0.998047 z"
         transform="matrix(0.26458334,0,0,0.26458334,0,280.06666)" />
      <path
         id="path1207"
         style="color:#000000;font-style:normal;font-variant:normal;font-weight:normal;font-stretch:normal;font-size:medium;line-height:normal;font-family:sans-serif;font-variant-ligatures:normal;font-variant-position:normal;font-variant-caps:normal;font-variant-numeric:normal;font-variant-alternates:normal;font-variant-east-asian:normal;font-feature-settings:normal;font-variation-settings:normal;text-indent:0;text-align:start;text-decoration:none;text-decoration-line:none;text-decoration-style:solid;text-decoration-color:#000000;letter-spacing:normal;word-spacing:normal;text-transform:none;writing-mode:lr-tb;direction:ltr;text-orientation:mixed;dominant-baseline:auto;baseline-shift:baseline;text-anchor:start;white-space:normal;shape-padding:0;shape-margin:0;inline-size:0;clip-rule:nonzero;display:inline;overflow:visible;visibility:visible;isolation:auto;mix-blend-mode:normal;color-interpolation:sRGB;color-interpolation-filters:linearRGB;solid-color:#000000;solid-opacity:1;vector-effect:none;fill:#311a12;fill-opacity:1;fill-rule:nonzero;stroke:none;stroke-width:1.58467;stroke-linecap:round;stroke-linejoin:round;stroke-miterlimit:4;stroke-dasharray:none;stroke-dashoffset:0;stroke-opacity:1;color-rendering:auto;image-rendering:auto;shape-rendering:auto;text-rendering:auto;enable-background:accumulate;stop-color:#000000"
         d="m -204.23438,35.041016 a 1.0000006,1.0000006 0 0 0 -0.99609,1.003906 l 0.008,2.730469 c 0.62704,0.364347 1.2964,0.666047 2.00391,0.880859 l -0.0117,-3.619141 a 1.0000006,1.0000006 0 0 0 -1.00391,-0.996093 z"
         transform="matrix(0.26458334,0,0,0.26458334,0,280.06666)" />
      <path
         sodipodi:nodetypes="sccsccs"
         id="path1066"
         style="color:#000000;font-style:normal;font-variant:normal;font-weight:normal;font-stretch:normal;font-size:medium;line-height:normal;font-family:sans-serif;font-variant-ligatures:normal;font-variant-position:normal;font-variant-caps:normal;font-variant-numeric:normal;font-variant-alternates:normal;font-variant-east-asian:normal;font-feature-settings:normal;font-variation-settings:normal;text-indent:0;text-align:start;text-decoration:none;text-decoration-line:none;text-decoration-style:solid;text-decoration-color:#000000;letter-spacing:normal;word-spacing:normal;text-transform:none;writing-mode:lr-tb;direction:ltr;text-orientation:mixed;dominant-baseline:auto;baseline-shift:baseline;text-anchor:start;white-space:normal;shape-padding:0;shape-margin:0;inline-size:0;clip-rule:nonzero;display:inline;overflow:visible;visibility:visible;isolation:auto;mix-blend-mode:normal;color-interpolation:sRGB;color-interpolation-filters:linearRGB;solid-color:#000000;solid-opacity:1;vector-effect:none;fill:#fec872;fill-opacity:1;fill-rule:nonzero;stroke:none;stroke-width:0.419278;stroke-linecap:round;stroke-linejoin:round;stroke-miterlimit:4;stroke-dasharray:none;stroke-dashoffset:0;stroke-opacity:1;color-rendering:auto;image-rendering:auto;shape-rendering:auto;text-rendering:auto;enable-background:accumulate;stop-color:#000000"
         d="m -54.334165,287.52347 c -0.230818,0 -0.456285,0.0296 -0.672312,0.0853 l 0.0067,0.70383 c 0.0088,1.03186 0.890264,1.85932 1.962671,1.85932 1.072401,0 1.961118,-0.82885 1.961121,-1.86346 l -0.0018,-0.78649 z" />
      <path
         sodipodi:nodetypes="sccccsccccs"
         id="path1120"
         style="color:#000000;font-style:normal;font-variant:normal;font-weight:normal;font-stretch:normal;font-size:medium;line-height:normal;font-family:sans-serif;font-variant-ligatures:normal;font-variant-position:normal;font-variant-caps:normal;font-variant-numeric:normal;font-variant-alternates:normal;font-variant-east-asian:normal;font-feature-settings:normal;font-variation-settings:normal;text-indent:0;text-align:start;text-decoration:none;text-decoration-line:none;text-decoration-style:solid;text-decoration-color:#000000;letter-spacing:normal;word-spacing:normal;text-transform:none;writing-mode:lr-tb;direction:ltr;text-orientation:mixed;dominant-baseline:auto;baseline-shift:baseline;text-anchor:start;white-space:normal;shape-padding:0;shape-margin:0;inline-size:0;clip-rule:nonzero;display:inline;overflow:visible;visibility:visible;opacity:1;isolation:auto;mix-blend-mode:normal;color-interpolation:sRGB;color-interpolation-filters:linearRGB;solid-color:#000000;solid-opacity:1;vector-effect:none;fill:#fec872;fill-opacity:1;fill-rule:nonzero;stroke:none;stroke-width:1.58467;stroke-linecap:round;stroke-linejoin:round;stroke-miterlimit:4;stroke-dasharray:none;stroke-dashoffset:0;stroke-opacity:1;color-rendering:auto;image-rendering:auto;shape-rendering:auto;text-rendering:auto;enable-background:accumulate;stop-color:#000000;stop-opacity:1"
         d="m -178.39853,22.439437 c 0.28894,-0.765165 0.92771,-1.558605 2.40039,-2.419922 l 0.98438,-0.55664 c -0.3775,-0.538819 -0.8133,-1.061838 -1.30073,-1.564445 l -0.68845,0.388673 c -1.73923,1.017078 -2.78302,2.173016 -3.2627,3.443353 -0.4797,1.270337 -0.3751,2.546355 -0.14063,3.728515 l 0.0937,0.5625 c 0.66288,0.247987 1.3652,0.427078 2.09766,0.460938 l -0.22852,-1.391603 c -0.203,-1.038146 -0.24401,-1.886204 0.0449,-2.651369 z"
         transform="matrix(0.26458334,0,0,0.26458334,0,280.06666)" />
      <path
         sodipodi:nodetypes="ccccccccc"
         id="path1094"
         style="color:#000000;font-style:normal;font-variant:normal;font-weight:normal;font-stretch:normal;font-size:medium;line-height:normal;font-family:sans-serif;font-variant-ligatures:normal;font-variant-position:normal;font-variant-caps:normal;font-variant-numeric:normal;font-variant-alternates:normal;font-variant-east-asian:normal;font-feature-settings:normal;font-variation-settings:normal;text-indent:0;text-align:start;text-decoration:none;text-decoration-line:none;text-decoration-style:solid;text-decoration-color:#000000;letter-spacing:normal;word-spacing:normal;text-transform:none;writing-mode:lr-tb;direction:ltr;text-orientation:mixed;dominant-baseline:auto;baseline-shift:baseline;text-anchor:start;white-space:normal;shape-padding:0;shape-margin:0;inline-size:0;clip-rule:nonzero;display:inline;overflow:visible;visibility:visible;isolation:auto;mix-blend-mode:normal;color-interpolation:sRGB;color-interpolation-filters:linearRGB;solid-color:#000000;solid-opacity:1;vector-effect:none;fill:#9a605a;fill-opacity:1;fill-rule:nonzero;stroke:none;stroke-width:1.58467;stroke-linecap:round;stroke-linejoin:round;stroke-miterlimit:4;stroke-dasharray:none;stroke-dashoffset:0;stroke-opacity:1;color-rendering:auto;image-rendering:auto;shape-rendering:auto;text-rendering:auto;enable-background:accumulate;stop-color:#000000"
         d="m -177.01686,48.003823 c -0.14706,-1.984087 -0.29375,-2.741519 -0.65625,-4.599609 l -7.2e-4,8.3e-5 -6.04492,1.630859 c 0.4352,1.009623 0.70342,2.354952 0.6543,4.378906 -0.0113,0.435337 0.26046,0.827925 0.67187,0.970704 l 0.64296,0.0038 4.05273,-1.367188 c 0.40925,-0.202264 0.66291,-0.521221 0.68003,-1.017585 z"
         transform="matrix(0.26458334,0,0,0.26458334,0,280.06666)" />
      <path
         sodipodi:nodetypes="ccccccc"
         id="path1080"
         style="color:#000000;font-style:normal;font-variant:normal;font-weight:normal;font-stretch:normal;font-size:medium;line-height:normal;font-family:sans-serif;font-variant-ligatures:normal;font-variant-position:normal;font-variant-caps:normal;font-variant-numeric:normal;font-variant-alternates:normal;font-variant-east-asian:normal;font-feature-settings:normal;font-variation-settings:normal;text-indent:0;text-align:start;text-decoration:none;text-decoration-line:none;text-decoration-style:solid;text-decoration-color:#000000;letter-spacing:normal;word-spacing:normal;text-transform:none;writing-mode:lr-tb;direction:ltr;text-orientation:mixed;dominant-baseline:auto;baseline-shift:baseline;text-anchor:start;white-space:normal;shape-padding:0;shape-margin:0;inline-size:0;clip-rule:nonzero;display:inline;overflow:visible;visibility:visible;isolation:auto;mix-blend-mode:normal;color-interpolation:sRGB;color-interpolation-filters:linearRGB;solid-color:#000000;solid-opacity:1;vector-effect:none;fill:#9a605a;fill-opacity:1;fill-rule:nonzero;stroke:none;stroke-width:1.58467;stroke-linecap:round;stroke-linejoin:round;stroke-miterlimit:4;stroke-dasharray:none;stroke-dashoffset:0;stroke-opacity:1;color-rendering:auto;image-rendering:auto;shape-rendering:auto;text-rendering:auto;enable-background:accumulate;stop-color:#000000"
         d="m -214.61771,50.413134 c 0.37717,0.01996 0.58237,-0.05186 0.82813,-0.249978 l 3.46777,-4.028319 c -2.13059,-1.092964 -4.55402,-1.911212 -6.81761,-2.815465 l -1.33519,4.854456 c -0.0875,0.332348 0.002,0.686366 0.44358,1.070326 z"
         transform="matrix(0.26458334,0,0,0.26458334,0,280.06666)" />
      <path
         sodipodi:nodetypes="cccccccc"
         id="path1182"
         style="color:#000000;font-style:normal;font-variant:normal;font-weight:normal;font-stretch:normal;font-size:medium;line-height:normal;font-family:sans-serif;font-variant-ligatures:normal;font-variant-position:normal;font-variant-caps:normal;font-variant-numeric:normal;font-variant-alternates:normal;font-variant-east-asian:normal;font-feature-settings:normal;font-variation-settings:normal;text-indent:0;text-align:start;text-decoration:none;text-decoration-line:none;text-decoration-style:solid;text-decoration-color:#000000;letter-spacing:normal;word-spacing:normal;text-transform:none;writing-mode:lr-tb;direction:ltr;text-orientation:mixed;dominant-baseline:auto;baseline-shift:baseline;text-anchor:start;white-space:normal;shape-padding:0;shape-margin:0;inline-size:0;clip-rule:nonzero;display:inline;overflow:visible;visibility:visible;isolation:auto;mix-blend-mode:normal;color-interpolation:sRGB;color-interpolation-filters:linearRGB;solid-color:#000000;solid-opacity:1;vector-effect:none;fill:#311a12;fill-opacity:1;fill-rule:nonzero;stroke:none;stroke-width:1.58467;stroke-linecap:round;stroke-linejoin:round;stroke-miterlimit:4;stroke-dasharray:none;stroke-dashoffset:0;stroke-opacity:1;color-rendering:auto;image-rendering:auto;shape-rendering:auto;text-rendering:auto;enable-background:accumulate;stop-color:#000000"
         d="m -177.01686,48.003823 c -0.0923,-1.24579 -0.206,-2.069135 -0.35156,-2.923828 l -7.2e-4,8.3e-5 c -1.94997,0.770052 -3.88912,1.441234 -5.81641,1.990234 0.0935,0.668928 0.14329,1.429476 0.1211,2.34375 -0.0113,0.435337 0.29726,0.938322 1.03015,1.083015 l 4.33741,-1.475669 c 0.3511,-0.214767 0.71115,-0.420591 0.68003,-1.017585 z"
         transform="matrix(0.26458334,0,0,0.26458334,0,280.06666)" />
      <path
         id="path1185"
         style="color:#000000;font-style:normal;font-variant:normal;font-weight:normal;font-stretch:normal;font-size:medium;line-height:normal;font-family:sans-serif;font-variant-ligatures:normal;font-variant-position:normal;font-variant-caps:normal;font-variant-numeric:normal;font-variant-alternates:normal;font-variant-east-asian:normal;font-feature-settings:normal;font-variation-settings:normal;text-indent:0;text-align:start;text-decoration:none;text-decoration-line:none;text-decoration-style:solid;text-decoration-color:#000000;letter-spacing:normal;word-spacing:normal;text-transform:none;writing-mode:lr-tb;direction:ltr;text-orientation:mixed;dominant-baseline:auto;baseline-shift:baseline;text-anchor:start;white-space:normal;shape-padding:0;shape-margin:0;inline-size:0;clip-rule:nonzero;display:inline;overflow:visible;visibility:visible;isolation:auto;mix-blend-mode:normal;color-interpolation:sRGB;color-interpolation-filters:linearRGB;solid-color:#000000;solid-opacity:1;vector-effect:none;fill:#311a12;fill-opacity:1;fill-rule:nonzero;stroke:none;stroke-width:0.419278;stroke-linecap:round;stroke-linejoin:round;stroke-miterlimit:4;stroke-dasharray:none;stroke-dashoffset:0;stroke-opacity:1;color-rendering:auto;image-rendering:auto;shape-rendering:auto;text-rendering:auto;enable-background:accumulate;stop-color:#000000"
         d="m -57.635242,292.16722 -0.1695,0.64544 a 0.26460996,0.26460996 0 0 0 0.06253,0.24804 0.26460996,0.26460996 0 0 0 0.03101,0.0284 0.26460996,0.26460996 0 0 0 0.0016,0.001 0.26460996,0.26460996 0 0 0 0.0031,0.002 0.26460996,0.26460996 0 0 0 0.01344,0.01 0.26460996,0.26460996 0 0 0 0.0021,10e-4 0.26460996,0.26460996 0 0 0 0.0186,0.0109 0.26460996,0.26460996 0 0 0 5.16e-4,5.2e-4 0.26460996,0.26460996 0 0 0 0.01809,0.008 0.26460996,0.26460996 0 0 0 0.01188,0.005 0.26460996,0.26460996 0 0 0 0.0088,0.004 0.26460996,0.26460996 0 0 0 5.16e-4,0 l 0.804604,0.26769 a 0.26460996,0.26460996 0 0 0 0.02119,0.006 0.26460996,0.26460996 0 0 0 0.04392,0.007 0.26460996,0.26460996 0 0 0 0.02222,5.2e-4 0.26460996,0.26460996 0 0 0 0.155028,-0.0543 l 0.0155,-0.0114 a 0.26460996,0.26460996 0 0 0 0.02532,-0.0253 l 0.566891,-0.66198 c -0.55335,-0.13385 -1.105739,-0.29837 -1.657263,-0.49144 z" />
      <path
         sodipodi:nodetypes="csccssccc"
         style="color:#000000;font-style:normal;font-variant:normal;font-weight:normal;font-stretch:normal;font-size:medium;line-height:normal;font-family:sans-serif;font-variant-ligatures:normal;font-variant-position:normal;font-variant-caps:normal;font-variant-numeric:normal;font-variant-alternates:normal;font-variant-east-asian:normal;font-feature-settings:normal;font-variation-settings:normal;text-indent:0;text-align:start;text-decoration:none;text-decoration-line:none;text-decoration-style:solid;text-decoration-color:#000000;letter-spacing:normal;word-spacing:normal;text-transform:none;writing-mode:lr-tb;direction:ltr;text-orientation:mixed;dominant-baseline:auto;baseline-shift:baseline;text-anchor:start;white-space:normal;shape-padding:0;shape-margin:0;inline-size:0;clip-rule:nonzero;display:inline;overflow:visible;visibility:visible;isolation:auto;mix-blend-mode:normal;color-interpolation:sRGB;color-interpolation-filters:linearRGB;solid-color:#000000;solid-opacity:1;vector-effect:none;fill:#66342d;fill-opacity:1;fill-rule:nonzero;stroke:none;stroke-width:0.419278;stroke-linecap:round;stroke-linejoin:round;stroke-miterlimit:4;stroke-dasharray:none;stroke-dashoffset:0;stroke-opacity:1;color-rendering:auto;image-rendering:auto;shape-rendering:auto;text-rendering:auto;enable-background:accumulate;stop-color:#000000"
         d="m -59.417971,291.9004 c -0.663949,-0.17488 -1.21757,0.23063 -1.28906,0.75976 -0.07125,0.52737 0.37777,1.02843 1.123047,1.34765 4.542711,2.0329 9.258177,2.27716 14.121093,-0.0117 0.794441,-0.36874 1.164827,-0.93788 1.089844,-1.45312 -0.03749,-0.25762 -0.20048,-0.48567 -0.435547,-0.60547 -0.235067,-0.1198 -0.530005,-0.1351 -0.859377,-0.0342 -4.759879,2.23953 -9.285616,2.00089 -13.75,-0.003 z"
         id="path1154" />
      <path
         sodipodi:nodetypes="ccccc"
         id="path445"
         d="m -55.551741,291.25938 -0.216233,0.29861 0.459502,0.31881 0.279175,-0.32594 z"
         style="fill:#9a605a;fill-opacity:1;stroke-width:0.419278;stroke-linecap:round;stroke-linejoin:round" />
      <path
         id="path447"
         d="m -48.417971,289.82639 -0.204568,0.44824 0.364051,0.27667 0.279824,-0.43069 z"
         style="fill:#9a605a;fill-opacity:1;stroke-width:0.419278;stroke-linecap:round;stroke-linejoin:round" />
    </g>
  </g>
</svg>
