<?xml version="1.0" standalone="no"?>
<!DOCTYPE svg PUBLIC "-//W3C//DTD SVG 20010904//EN"
 "http://www.w3.org/TR/2001/REC-SVG-20010904/DTD/svg10.dtd">
<svg version="1.0" xmlns="http://www.w3.org/2000/svg"
 width="1042.000000pt" height="1280.000000pt" viewBox="0 0 1042.000000 1280.000000"
 preserveAspectRatio="xMidYMid meet">
<metadata>
Created by potrace 1.15, written by Peter Selinger 2001-2017
</metadata>
<g transform="translate(0.000000,1280.000000) scale(0.100000,-0.100000)"
fill="#ff9800" stroke="none">
<path d="M9813 12791 c-57 -10 -66 -21 -17 -21 53 0 178 -36 237 -67 136 -75
217 -236 217 -433 -1 -235 -113 -540 -305 -830 l-70 -105 -7 45 c-4 25 -14
162 -23 305 -18 292 -48 607 -70 736 -30 175 -76 259 -141 259 -74 0 -160
-100 -454 -530 -206 -302 -346 -497 -475 -665 -124 -161 -294 -365 -303 -364
-4 0 -20 28 -37 62 -37 76 -65 86 -113 38 -16 -17 -98 -158 -182 -313 -84
-156 -168 -306 -186 -333 -33 -50 -84 -105 -84 -91 0 4 23 69 51 144 100 267
137 470 125 697 -16 303 -75 628 -141 772 -54 117 -110 132 -156 42 -11 -23
-101 -225 -198 -448 -439 -1002 -569 -1260 -864 -1701 -210 -315 -282 -404
-592 -735 -235 -251 -521 -567 -643 -713 -259 -307 -477 -637 -609 -920 -111
-238 -256 -645 -377 -1061 -25 -85 -50 -159 -55 -164 -11 -11 -5 -20 -117 183
-240 435 -427 636 -661 709 -155 49 -308 48 -490 -5 -180 -51 -302 -125 -462
-279 -121 -117 -189 -208 -228 -308 -24 -63 -42 -86 -138 -185 -60 -63 -127
-128 -148 -144 l-38 -31 -72 49 c-142 96 -277 252 -356 410 -42 84 -91 237
-91 285 l0 30 32 -36 c91 -104 252 -112 446 -20 101 48 177 110 268 217 106
127 184 248 259 403 101 208 111 201 -129 80 -219 -110 -285 -132 -471 -154
-202 -25 -263 -49 -355 -137 -31 -30 -60 -54 -63 -54 -4 0 -7 17 -7 38 0 101
-80 268 -180 375 -38 40 -107 101 -155 135 -69 49 -83 63 -69 68 92 29 156 79
212 164 75 112 122 311 122 518 0 61 -4 112 -9 112 -5 0 -26 -24 -47 -52 -91
-127 -165 -205 -245 -262 -181 -128 -186 -133 -214 -193 -24 -49 -27 -66 -22
-120 2 -35 2 -63 -1 -63 -3 0 -62 38 -131 84 -127 85 -281 210 -281 227 0 5
13 9 29 9 40 0 80 36 115 103 28 54 29 59 23 164 -7 143 -54 301 -73 247 -41
-116 -73 -180 -119 -243 -31 -41 -61 -94 -68 -119 l-14 -45 -20 29 c-32 46
-69 123 -91 194 -43 135 -40 128 -41 100 -2 -92 56 -243 144 -375 30 -46 55
-86 55 -89 0 -3 -11 -6 -24 -6 -13 0 -65 -16 -115 -35 -62 -24 -122 -39 -191
-47 -55 -6 -100 -15 -100 -18 0 -8 130 -83 193 -110 120 -53 252 -47 314 15
18 18 33 42 33 54 0 30 16 26 69 -17 58 -49 216 -159 351 -247 116 -75 114
-67 14 -94 -23 -6 -88 -45 -145 -87 -128 -93 -181 -121 -332 -170 -64 -21
-117 -42 -117 -45 0 -20 213 -85 340 -104 167 -26 283 -14 388 39 57 29 129
103 138 143 3 15 9 41 13 58 l7 30 33 -45 c46 -63 99 -170 115 -235 8 -30 17
-125 21 -212 3 -87 8 -189 11 -226 l5 -69 -43 25 c-124 71 -246 74 -458 12
-168 -49 -263 -58 -490 -45 -102 6 -193 13 -202 16 -31 9 -20 -10 40 -67 144
-140 284 -240 459 -328 168 -84 231 -101 370 -101 217 0 336 57 381 183 9 26
19 47 23 47 3 0 15 -19 25 -42 54 -120 179 -272 315 -384 38 -31 69 -60 69
-64 0 -4 -46 -48 -103 -96 -106 -92 -157 -143 -157 -156 0 -25 279 24 402 71
39 15 48 9 105 -67 67 -90 100 -150 128 -232 70 -206 53 -396 -56 -631 -43
-93 -50 -115 -41 -134 34 -74 264 -48 307 36 18 35 21 374 4 495 -23 168 -107
382 -204 521 -26 36 -43 69 -38 73 4 4 43 19 85 33 l77 25 38 -25 c121 -81
277 -227 357 -333 101 -134 131 -232 171 -555 44 -354 92 -544 181 -720 189
-373 487 -667 989 -976 443 -274 780 -392 1345 -474 325 -46 525 -118 755
-270 265 -175 466 -429 706 -890 225 -432 330 -750 504 -1525 37 -162 74 -310
83 -329 50 -102 163 -104 371 -5 99 46 266 153 381 243 36 28 66 46 68 41 7
-19 -51 -120 -91 -161 -44 -44 -146 -99 -185 -99 -13 0 -20 -4 -17 -10 3 -5
41 -10 83 -10 205 2 328 125 360 362 l7 56 199 202 198 203 -4 -89 c-2 -69 -9
-101 -29 -144 -28 -59 -87 -123 -141 -152 l-33 -17 31 -1 c44 0 123 28 168 61
46 33 100 106 117 158 15 42 15 208 1 267 l-9 42 119 138 c66 77 136 160 155
187 19 26 39 47 44 47 27 0 24 -183 -5 -240 -10 -19 -37 -54 -59 -77 -22 -24
-38 -45 -34 -49 10 -11 133 64 163 98 71 84 87 202 45 331 l-22 68 64 102
c156 248 226 446 203 571 -4 21 -21 50 -40 70 -37 36 -34 36 -350 111 -405 97
-654 190 -875 328 -89 55 -299 211 -506 375 -307 243 -469 422 -918 1017 -108
143 -234 307 -281 365 -52 64 -80 107 -73 111 7 3 48 11 92 18 168 26 369 112
580 248 l110 71 115 7 c481 28 726 236 609 516 -32 77 -35 77 -31 1 11 -195
-151 -337 -458 -402 -103 -22 -103 -13 1 76 154 133 362 358 558 605 l76 97
98 26 c235 62 387 158 448 283 34 70 32 172 -5 245 -29 57 -74 119 -60 83 4
-11 9 -55 12 -97 3 -66 1 -84 -20 -130 -32 -69 -77 -120 -151 -170 -62 -42
-176 -98 -201 -98 -8 0 50 97 144 238 87 130 207 323 266 427 l109 190 125 65
c212 110 321 201 375 315 36 77 36 191 -1 261 -27 51 -93 138 -100 131 -2 -2
5 -25 16 -51 15 -34 21 -67 21 -123 0 -66 -4 -85 -32 -141 -18 -38 -57 -90
-93 -127 -59 -60 -198 -160 -215 -153 -4 2 25 77 66 168 98 217 209 498 274
690 33 101 59 162 74 175 12 11 62 48 111 82 240 168 367 318 419 498 22 76
16 172 -16 240 -24 53 -123 157 -179 189 -36 21 -35 14 11 -44 46 -58 69 -131
69 -218 0 -132 -52 -247 -177 -389 -61 -70 -181 -178 -189 -171 -2 3 18 93 45
199 86 337 170 777 203 1064 l12 110 99 105 c284 302 419 560 420 800 0 189
-89 308 -280 372 -107 36 -129 36 -72 -1 64 -41 133 -118 165 -181 60 -118 39
-317 -52 -509 -50 -107 -151 -264 -213 -331 l-41 -45 5 45 c17 145 35 561 41
930 l7 425 47 55 c285 334 470 718 487 1010 13 229 -51 379 -199 467 -100 61
-265 86 -405 64z"/>
</g>
</svg>
