<svg xmlns="http://www.w3.org/2000/svg" id="Layer_1" enable-background="new 0 0 68 68" viewBox="0 0 68 68"><g><g><path d="m13.630127 31.0280266c-1.0800781 3.4000244-1.6999512 6.8300171-1.7900391 10.1000366-1.7299805-1.3800049-2.9401855-2.8900146-3.5600586-4.4100342.8100586-2.0100097 2.6899414-4.0100097 5.3500977-5.6900024z" fill="#4f3527"/><path d="m59.7199707 36.8180046c-.8798828 2.1900024-3 4.3400269-6.1098633 6.1500244-5.0400391 2.9299927-12.1501465 4.6099854-19.5100098 4.6099854-7.3500977 0-14.4899902-1.6799927-19.5700684-4.6199951-.6799316-.3900146-1.3200684-.7999878-1.8999023-1.2299805.0197754-3.6500244.75-7.5 2.0300293-11.3200073v-.0100098c5.0200195-2.8399658 12.0097656-4.4599609 19.2299805-4.4599609 7.369873 0 14.5 1.6799927 19.579834 4.6099854 3.1401367 1.8200072 5.3500977 4.0399779 6.25 6.2699584z" fill="#4f3527"/><path d="m15.8701172 25.218029c-.7099609 1.5200195-1.3300781 3.0700073-1.8601074 4.6300049-.0100098 0-.0100098.0100098-.0200196.0100098-2.829834 1.6499634-4.9399414 3.6400146-6.0598145 5.7099609-.0800781-.3799438-.1201172-.7599487-.1201172-1.1399536-.0100098-2.9100342 2.3898926-5.9800415 6.5898438-8.4200439.4702149-.2699585.9602051-.5399781 1.4702149-.7899781z" fill="#4f3527"/><path d="m60.1999512 34.5380363c0 .3800049-.0397949.7600098-.119873 1.1400146-1.130127-2.1199951-3.25-4.1100464-6.2099609-5.8200073-5.1899414-3-12.4799805-4.7200317-19.9799805-4.7200317-6.9799805 0-13.7600098 1.5-18.8400879 4.1300049.5600586-1.5499878 1.2099609-3.0700073 1.9399414-4.5700073 1.2099609-.5499878 2.5-1.0199585 3.8500977-1.4400024 3.9599609-1.2099609 8.4599609-1.8599854 13.0598145-1.8599854 4.5400391 0 8.9902344.6400146 12.9301758 1.8200073.0500488.0200195.1098633.0300293.1599121.039978.130127.0400391.25.0900269.380127.1400146 2.2399902.7000122 4.3100586 1.5800171 6.1098633 2.6199951 2.6501465 1.5300293 4.6000977 3.3099976 5.7001953 5.1400146 0 .0100098.0097656.0200195.0097656.0300293.0300293.0499878.0600586.0999756.0800781.1499634.6101073 1.0599977.9299315 2.1400148.9299315 3.2000123z" fill="#4f3527"/><path d="m12.1101074 22.0780144c-5.7102051 3.3200073-8.8500977 7.710022-8.8500977 12.3699951.0100098 4.5700073 3.0500488 8.9000244 8.5800781 12.2000122l-.0200195-4.5100098c-3.0800781-2.3299561-4.8100586-5.0499878-4.8100586-7.6999512-.0100097-3.2200317 2.5400391-6.540039 6.9799805-9.1200561.7600098-.4399414 1.5800781-.8599854 2.4299316-1.2399902.8500977-1.75 1.8100586-3.4599609 2.8601074-5.0999756-2.580078.8099975-4.9999999 1.8399658-7.1699218 3.0999756zm43.6398926 0c-.1899414-.1099854-.3898926-.2199707-.5898438-.3200073-.2602539-.1499634-.5300293-.2999878-.8000488-.4299927-5.8300781-2.9799805-13.1501465-4.4799805-20.4602051-4.4799805-4.619873 0-9.2397461.5999756-13.4697266 1.789978-1.0500488 1.5900269-2.0302734 3.25-2.9001465 4.960022.8601074-.3499756 1.7600098-.6799927 2.6899414-.9699707 4.130127-1.3100586 8.8500977-2.0400391 13.670166-2.0400391 4.9199219 0 9.7399902.7600098 13.9399414 2.1199951 2.2099609.710022 4.2600098 1.5800171 6.0500488 2.6099854 2.75 1.5900269 4.7800293 3.460022 5.9599609 5.4000244.0300293.0599976.0700684.1099854.0998535.1600342 0 .0099487.0100098.0199585.0100098.0299683.6901857 1.2000122 1.050049 2.4199829 1.050049 3.6199951v.0100098c0 .7999878-.1499023 1.6199951-.4599609 2.4199829-.0100098.0100098-.0100098.0100098-.0100098.0100098-.9299316 2.4100342-3.1899414 4.7600098-6.5200195 6.6900024-5.1599121 3-12.4199219 4.7200317-19.9099121 4.7200317s-14.7700195-1.7200317-19.9799805-4.7200317c-.5300293-.2999878-1.0300293-.6199951-1.5-.9400024l.0200195 4.3900146c12.0898438 6.7600098 31.3898926 6.6900024 43.25-.210022 2.1398926-1.2399902 3.9199219-2.6400146 5.3098145-4.1400146 2.3100586-2.5 3.5400391-5.3099976 3.5400391-8.2099609 0-.0100098 0-.0100098 0-.0200195-.0000001-4.6799928-3.1999512-9.1099855-8.9899903-12.4500123z" fill="#4f3527"/><path d="m63.8203125 40.5889397c-.4064941.6890259-.8828125 1.3623047-1.4274902 2.0170898-.0800781.0963745-.1643066.1914673-.2475586.2870483-.2009277.2310181-.4104004.4594116-.6281738.6854858-.0976563.1015015-.1938477.2033081-.295166.303772-.2797852.2775879-.5708008.5515747-.8764648.8209229-.0820313.0723877-.1672363.1436768-.2509766.2154541-.2849121.2432861-.5795898.4830322-.8852539.7188721-.1479492.1141357-.3012695.2260132-.4541016.3383789-.2333984.1716309-.4724121.3410034-.7172852.5083008-.1691895.1158447-.3378906.2317505-.5124512.3453979-.2883301.187439-.5869141.3705444-.8896484.552002-.1169434.0701294-.2246094.144104-.34375.2133179-12.2060547 7.0922852-32.1435547 7.0932617-44.4433594.0009766-.2893066-.1669922-.5581055-.3427124-.8349609-.5150757-.1044922-.0650635-.2124023-.1286621-.3151855-.194458-.2687988-.1722412-.5280762-.3480225-.784668-.5252075-.1381836-.0953369-.2739258-.1914673-.4084473-.288208-.2441406-.1756592-.4863281-.3518066-.7185059-.5319214-.1164551-.090332-.2255859-.1831665-.3391113-.2745361-.3977051-.3208008-.7766113-.6478882-1.1367188-.9815674-.1333008-.1234131-.2685547-.2460938-.3964844-.3712158-.1762695-.1723022-.3447266-.3465576-.5109863-.5218506-.1342773-.1416016-.263916-.2844238-.3918457-.4279785-.1501465-.1689453-.3012695-.3374634-.4421387-.5089722-.1755371-.2133789-.3391113-.4299316-.5002441-.6470337-.1623535-.2189941-.315918-.4397583-.4633789-.6623535-.1237793-.1866455-.2463379-.3735962-.3596191-.5626221-.0964355-.1609497-.1875-.322937-.276123-.4855957-.1057129-.1930542-.2038574-.3874512-.2983398-.5827637-.0522461-.1080322-.1162109-.2137451-.1650391-.3224487.8535156 6.71875 3.8896484 12.9326172 8.7607422 17.8037109 5.7958984 5.8095703 13.515625 9.0087929 21.7382813 9.0087929 15.5566406 0 28.4501953-11.623539 30.4609375-26.6450233-.019043.0418701-.0446777.0824585-.064209.1242065-.1398926.296814-.2919922.5910034-.4567871.8825684-.0419923.0742186-.0820314.1486815-.1254884.2225341z" fill="#4f3527"/></g><g><path d="m55.1601563 21.758007v.2300415c0 .2199707-.1801758.3999634-.4001465.3999634s-.3999023-.1799927-.3999023-.3999634v-.6600342l-.0200195-3.8499756c-.0100098-6.3499746-2.1599121-11.0800171-6.0400391-13.3099976-3.9001465-2.25-9.119873-1.7200317-14.6899414 1.5-4.9899902 2.8800054-9.5700684 7.5399785-13.1799316 12.9699707-.3901367.1100464-.7700195.2200317-1.1501465.3400269 3.7399902-5.8699942 8.6101074-10.9299917 13.9299316-14 5.8300781-3.3699951 11.3300781-3.9000244 15.4899902-1.5100098 4.1401367 2.3800049 6.420166 7.3599858 6.4401855 14.0100098z" fill="#4f3527"/></g></g></svg>